<svg height='100px' width='100px'  fill="#3BB300" xmlns="http://www.w3.org/2000/svg" xmlns:xlink="http://www.w3.org/1999/xlink" version="1.1" x="0px" y="0px" viewBox="0 0 48 48" enable-background="new 0 0 48 48" xml:space="preserve"><g><path d="M43.3,15.3C42.3,7.4,35.8,1,27.9,0.1C27.2,0,26.6,0,25.9,0C16.2,0,8.4,7.9,8.4,17.6c0,0.9-0.2,1.8-0.5,2.6   c-0.8,1.6-1.7,3.1-2.7,4.5c-0.6,0.7-0.7,1.7-0.4,2.6c0.3,0.9,1,1.5,1.9,1.7l1.2,0.3c0.4,0.1,0.7,0.4,0.7,0.8l0.7,6.3   c0.2,1.9,1.8,3.3,3.7,3.3h2.7c0.7,0,1.3,0.5,1.5,1.1l1.6,6.4c0.1,0.4,0.5,0.8,1,0.8h18.3c0.3,0,0.6-0.1,0.8-0.4   c0.2-0.2,0.3-0.5,0.2-0.8c-0.1-0.4-0.1-0.9-0.2-1.4c-1.1-6.8,0-13.9,3.1-20.4C43.2,22,43.7,18.6,43.3,15.3z M40,24.2   c-3.3,6.9-4.4,14.4-3.3,21.6c0,0.1,0,0.1,0,0.2H20.3l-1.4-5.7c-0.4-1.6-1.8-2.7-3.4-2.7h-2.7c-0.9,0-1.6-0.6-1.7-1.5l-0.7-6.3   c-0.1-1.2-1-2.2-2.2-2.5c-0.7-0.1-1.3-0.2-1.7-0.7c0-0.1-0.1-0.4,0.1-0.7c1.1-1.4,2.1-3.1,2.9-4.8c0.5-1,0.7-2.2,0.7-3.4   C10.4,9,17.3,2,25.9,2c0.6,0,1.2,0,1.8,0.1c7,0.8,12.7,6.4,13.6,13.4C41.7,18.5,41.2,21.5,40,24.2z"></path><path d="M24.6,24.8c-0.6,0-1.2,0.2-1.6,0.7c-0.4,0.4-0.7,1-0.7,1.6c0,0.6,0.2,1.1,0.7,1.5c0.5,0.4,1,0.6,1.6,0.6   c0.6,0,1.2-0.2,1.6-0.7c0.4-0.4,0.7-1,0.7-1.6s-0.2-1.1-0.7-1.6C25.7,25,25.2,24.8,24.6,24.8z"></path><path d="M24.8,7.8c-1.8,0-3.2,0.5-4.4,1.5c-1.2,1-1.9,2.4-2.1,4.2h3.6c0.1-0.8,0.4-1.4,0.9-1.9c0.5-0.5,1.1-0.7,1.9-0.7   s1.4,0.2,1.8,0.7c0.5,0.5,0.7,1.1,0.7,1.8c0,0.7-0.2,1.4-0.7,1.8l-2.2,2.2c-0.6,0.6-1,1.1-1.2,1.5c-0.2,0.4-0.3,1-0.3,1.8v1.8h3.4   v-1.3c0-0.8,0.2-1.4,0.5-1.8c0.1-0.2,0.3-0.4,0.6-0.6c0.2-0.2,0.5-0.5,0.8-0.8c0.3-0.3,0.6-0.6,0.8-0.8c0.2-0.2,0.5-0.5,0.9-1   c0.7-0.8,1-1.8,1-3c0-1.7-0.6-3.1-1.7-4C28,8.2,26.6,7.8,24.8,7.8z"></path></g></svg>