<svg height='100px' width='100px'  fill="#3BB300" xmlns:dc="http://purl.org/dc/elements/1.1/" xmlns:cc="http://creativecommons.org/ns#" xmlns:rdf="http://www.w3.org/1999/02/22-rdf-syntax-ns#" xmlns:svg="http://www.w3.org/2000/svg" xmlns="http://www.w3.org/2000/svg" xmlns:sodipodi="http://sodipodi.sourceforge.net/DTD/sodipodi-0.dtd" xmlns:inkscape="http://www.inkscape.org/namespaces/inkscape" version="1.1" x="0px" y="0px" viewBox="0 0 100 100"><g transform="translate(0,-952.36218)"><path style="text-indent:0;text-transform:none;direction:ltr;block-progression:tb;baseline-shift:baseline;color:#000000;enable-background:accumulate;" d="m 12,15 c -3.8260894,0 -7,3.17391 -7,7 l 0,60 c 1.571e-4,1.570753 1.4292466,2.999843 3,3 l 84,0 c 1.570753,-1.57e-4 2.999843,-1.429247 3,-3 l 0,-60 c 0,-3.82609 -3.173911,-7 -7,-7 z m 0,6 76,0 c 0.605971,0 1,0.39403 1,1 l 0,7 -78,0 0,-7 c 0,-0.60597 0.394029,-1 1,-1 z m 3.6875,1 c -1.570984,0.08155 -2.926091,1.585307 -2.84427,3.156277 C 12.925051,26.727247 14.429044,28.082094 16,28 l 18,0 c 1.584938,0.02241 3.042726,-1.414904 3.042726,-3 0,-1.585096 -1.457788,-3.022415 -3.042726,-3 -6.092348,-8e-6 -12.244328,0 -18.3125,0 z M 11,35 l 78,0 0,44 -78,0 z m 44.90625,3.9375 c -1.169019,0.04646 -2.273993,0.843071 -2.6875,1.9375 l -12,30 c -0.699809,1.476567 0.0819,3.466361 1.59963,4.071746 1.517726,0.605385 3.454315,-0.300143 3.96287,-1.852996 l 12,-30 c 0.386477,-0.923875 0.269328,-2.041088 -0.300388,-2.864699 -0.569715,-0.82361 -1.573797,-1.327306 -2.574612,-1.291551 z m -20.1875,5.03125 c -0.466083,0.05083 -0.919667,0.212822 -1.3125,0.46875 l -16,10 c -0.860717,0.535971 -1.414353,1.532923 -1.414353,2.546875 0,1.013952 0.553636,2.010904 1.414353,2.546875 l 16,10 c 1.333541,0.834486 3.306138,0.380415 4.140624,-0.953126 0.834485,-1.33354 0.380417,-3.306138 -0.953124,-4.140624 L 25.65625,57 37.59375,49.53125 c 1.172229,-0.69334 1.750733,-2.25018 1.315707,-3.540758 -0.435026,-1.290578 -1.837952,-2.17952 -3.190707,-2.021742 z m 28.15625,0 c -1.28216,0.03852 -2.483308,0.992752 -2.810785,2.232984 -0.327477,1.240233 0.246022,2.663053 1.342035,3.329516 L 74.34375,57 62.40625,64.4375 c -1.333541,0.834486 -1.787609,2.807084 -0.953124,4.140624 0.834486,1.333541 2.807083,1.787612 4.140624,0.953126 l 16,-10 c 0.860717,-0.535971 1.414353,-1.532923 1.414353,-2.546875 0,-1.013952 -0.553636,-2.010904 -1.414353,-2.546875 l -16,-10 C 65.085391,44.113314 64.477558,43.947541 63.875,43.96875 z" transform="translate(0,952.36218)" fill="#3BB300" fill-opacity="1" stroke="none" marker="none" visibility="visible" display="inline" overflow="visible"></path></g></svg>